<svg width="24" height="24" viewBox="0 0 24 24" aria-label="Dribbble" xmlns="http://www.w3.org/2000/svg">
  <path fill="#000000" d="M12 0C5.373 0 0 5.373 0 12c0 6.628 5.373 12 12 12 
  6.627 0 12-5.372 12-12 0-6.627-5.373-12-12-12zm7.803 5.601a9.953 9.953 0 0 1 2.07 6.214c-.29-.057-3.17-.629-6.084-.272-.073-.182-.14-.373-.218-.555-.228-.53-.487-1.04-.755-1.54 
  3.317-1.35 4.753-3.287 5.0-3.847zm-1.32-1.45c-.196.334-1.39 2.25-4.627 3.46-1.42-2.604-3.0-4.678-3.504-5.304a9.978 9.978 0 0 1 8.131 1.844zM8.64 2.244c.493.637 2.053 2.74 3.5 5.286-4.39 1.17-8.266 1.146-9.037 1.13a9.995 9.995 0 0 1 5.537-6.416zM2.027 9.63c.854.015 5.27.05 9.96-1.29.24.39.468.789.678 1.197-.107.03-.215.058-.32.09-4.843 1.49-7.417 5.6-7.675 5.999a9.94 9.94 0 0 1-2.643-6.0zm3.23 8.616c.168-.293 2.14-3.58 6.96-5.18 1.03 2.66 1.84 5.37 2.31 7.91a9.964 9.964 0 0 1-9.27-2.73zm11.093 2.146c-.424-2.3-1.16-4.82-2.115-7.34 2.69-.426 5.054.27 5.34.356a9.98 9.98 0 0 1-3.225 6.984z"/>
</svg>
