<svg width="24" height="24" viewBox="0 0 24 24" aria-label="LinkedIn" xmlns="http://www.w3.org/2000/svg">
  <path fill="#000000" d="M20.447 20.452H16.89V14.8c0-1.345-.027-3.078-1.878-3.078-1.88 0-2.168 1.464-2.168 2.975v5.755H9.286V9h3.41v1.561h.049c.476-.9 1.637-1.85 3.37-1.85 3.605 0 4.271 2.372 4.271 5.455v6.286zM5.337 7.433a1.986 1.986 0 11-.002-3.973 1.986 1.986 0 01.002 3.973zM6.897 20.452H3.775V9h3.122v11.452zM22.225 0H1.771C.792 0 0 .774 0 1.729v20.542C0 23.225.792 24 1.771 24h20.451C23.2 24 24 23.225 24 22.271V1.729C24 .774 23.2 0 22.225 0z"/>
</svg>
