<svg xmlns="http://www.w3.org/2000/svg" viewBox="0 0 128 128"><title>icon19.2g</title><g id="letter"><path d="M39.66,59.59a10.491,10.491,0,0,1,.58-1.22L11.02,24a5.62,5.62,0,0,1-1.05-1.79,7.9,7.9,0,0,0-1.02,3.9v75.78a7.9,7.9,0,0,0,1.02,3.9A5.62,5.62,0,0,1,11.02,104L39.97,69.94A13.893,13.893,0,0,1,39.66,59.59Z"/><path d="M42.83,55.24c.991-1.115,3.61-2.12,4.47-2.39a11.9,11.9,0,0,1,3.22-.51,11.941,11.941,0,0,1,7.47,2.88,44.865,44.865,0,0,1,4.02,3.6c.683.708,1.37,1.33,2.02,1.91.63-.56,1.27-1.18,1.93-1.81,3.77-3.62,8.45-8.12,14.82-6.07a11.953,11.953,0,0,1,4.36,2.43l.01-.01,28.78-33.86a1.989,1.989,0,0,0,.29-2.14,2.052,2.052,0,0,0-1.82-1.16H15.6a2.044,2.044,0,0,0-1.82,1.16,1.989,1.989,0,0,0,.29,2.14Z"/><path d="M83.83,59.78a8.327,8.327,0,0,0-4.27-3.12c-4.1-1.32-7.52,1.96-10.83,5.14-.72.69-1.42,1.37-2.11,1.98a3.729,3.729,0,0,1-2.59.97,4.538,4.538,0,0,1-2.59-.97c-.74-.66-1.46-1.36-2.22-2.1-1.01-.98-3.707-3.845-6.55-4.94a6.318,6.318,0,0,0-4.19-.07,7.7,7.7,0,0,0-5.11,4.41,10.465,10.465,0,0,0,.55,7.94s.46.94.57,1.14c2.38,4.3,11.58,9.85,18.74,13.31a1.868,1.868,0,0,0,1.6,0c5.62-2.72,15.91-8.58,18.77-13.37.11-.18.51-.95.51-.95a10.727,10.727,0,0,0,1.09-4.64,8.945,8.945,0,0,0-.55-3.14A8.855,8.855,0,0,0,83.83,59.78Z"/><path d="M85.96,73.69c-.04.05-.321.371-.87,1-3.474,3.81-9.14,7.2-10.49,8.02a89.68,89.68,0,0,1-8.04,4.36,6.323,6.323,0,0,1-1.24.44,5.91,5.91,0,0,1-2.58,0,6.742,6.742,0,0,1-1.24-.44,96.97,96.97,0,0,1-8.82-4.8,55.07,55.07,0,0,1-5.14-3.45,33.576,33.576,0,0,1-4.66-4.14c-.13-.15-.69-.82-.83-1L14.07,106.59a1.989,1.989,0,0,0-.29,2.14,1.942,1.942,0,0,0,1.82,1.16h96.8c1.118.164,1.75-1.02,1.82-1.16a1.989,1.989,0,0,0-.29-2.14Z"/><path d="M116.98,24,87.69,58.45a11.509,11.509,0,0,1,.7,1.51,13.847,13.847,0,0,1-.3,10.06L116.98,104a5.62,5.62,0,0,1,1.05,1.79,7.9,7.9,0,0,0,1.02-3.9V26.11a7.9,7.9,0,0,0-1.02-3.9A5.62,5.62,0,0,1,116.98,24Z"/></g></svg>